<svg width="101" height="78" viewBox="0 0 101 78" fill="none" xmlns="http://www.w3.org/2000/svg">
<path d="M28.5176 34.7793C25.5065 35.7559 22.2513 36.2441 18.752 36.2441C6.54492 36.2441 0.441406 30.1813 0.441406 18.0557C0.441406 6.58105 6.54492 0.84375 18.752 0.84375C22.2513 0.84375 25.5065 1.33203 28.5176 2.30859V6.21484C25.5065 5.07552 22.4141 4.50586 19.2402 4.50586C9.71875 4.50586 4.95801 9.02246 4.95801 18.0557C4.95801 27.7399 9.71875 32.582 19.2402 32.582C22.4141 32.582 25.5065 32.0124 28.5176 30.873V34.7793ZM35.9883 36V1.08789H50.1484C57.2773 1.08789 60.8418 4.20475 60.8418 10.4385C60.8418 17.2256 55.9671 21.3678 46.2178 22.8652L45.29 19.0566C52.4515 17.9987 56.0322 15.1911 56.0322 10.6338C56.0322 6.76009 53.9326 4.82324 49.7334 4.82324H40.5049V36H35.9883ZM70.3877 18.4463C70.3877 27.8701 74.6439 32.582 83.1562 32.582C91.4896 32.582 95.6562 27.8701 95.6562 18.4463C95.6562 9.15267 91.4896 4.50586 83.1562 4.50586C74.6439 4.50586 70.3877 9.15267 70.3877 18.4463ZM65.627 18.5928C65.627 6.76009 71.4701 0.84375 83.1562 0.84375C94.6634 0.84375 100.417 6.76009 100.417 18.5928C100.417 28.3258 96.4701 34.0713 88.5762 35.8291L94.2402 42.4209L90.7246 45.0576L83.1562 36.2441C71.4701 36.2441 65.627 30.3604 65.627 18.5928ZM0.65625 72V49.6562H3.54688V59.5H16.75V49.6562H19.6406V72H16.75V61.8438H3.54688V72H0.65625ZM31.4219 55.5938C36.0885 55.5938 38.4219 57.901 38.4219 62.5156C38.4219 63.1719 38.375 63.875 38.2812 64.625H26.7656C26.7656 67.9792 28.724 69.6562 32.6406 69.6562C34.5052 69.6562 36.1615 69.4479 37.6094 69.0312V71.375C36.1615 71.7917 34.401 72 32.3281 72C26.6927 72 23.875 69.2031 23.875 63.6094C23.875 58.2656 26.3906 55.5938 31.4219 55.5938ZM26.7656 62.2188H35.6406C35.5781 59.3438 34.1719 57.9062 31.4219 57.9062C28.5052 57.9062 26.9531 59.3438 26.7656 62.2188ZM45.3594 49.6562V72H42.4688V49.6562H45.3594ZM53.1094 68.6562C54.2448 69.2188 55.5104 69.5 56.9062 69.5C60.3125 69.5 62.0156 67.4531 62.0156 63.3594C62.0156 59.7865 60.3229 58 56.9375 58C55.4792 58 54.2031 58.125 53.1094 58.375V68.6562ZM50.2188 56.2656C52.3958 55.8177 54.6458 55.5938 56.9688 55.5938C62.2292 55.5938 64.8594 58.1927 64.8594 63.3906C64.8594 69.1302 62.2135 72 56.9219 72C55.6094 72 54.3385 71.7396 53.1094 71.2188V77.9375H50.2188V56.2656ZM75.5469 55.5938C80.2135 55.5938 82.5469 57.901 82.5469 62.5156C82.5469 63.1719 82.5 63.875 82.4062 64.625H70.8906C70.8906 67.9792 72.849 69.6562 76.7656 69.6562C78.6302 69.6562 80.2865 69.4479 81.7344 69.0312V71.375C80.2865 71.7917 78.526 72 76.4531 72C70.8177 72 68 69.2031 68 63.6094C68 58.2656 70.5156 55.5938 75.5469 55.5938ZM70.8906 62.2188H79.7656C79.7031 59.3438 78.2969 57.9062 75.5469 57.9062C72.6302 57.9062 71.0781 59.3438 70.8906 62.2188ZM86.4375 72V55.5938H88.3906L88.9062 57.6875C90.3438 56.2917 92.0729 55.5938 94.0938 55.5938V58C92.1354 58 90.5469 58.6927 89.3281 60.0781V72H86.4375Z" fill="white"/>
</svg>
